<?xml version="1.0" standalone="no"?>
<!DOCTYPE svg PUBLIC "-//W3C//DTD SVG 20010904//EN"
 "http://www.w3.org/TR/2001/REC-SVG-20010904/DTD/svg10.dtd">
<svg version="1.0" xmlns="http://www.w3.org/2000/svg"
 width="700.000000pt" height="700.000000pt" viewBox="0 0 700.000000 700.000000"
 preserveAspectRatio="xMidYMid meet">
<metadata>
Created by potrace 1.14, written by Peter Selinger 2001-2017
</metadata>
<g transform="translate(0.000000,700.000000) scale(0.100000,-0.100000)"
fill="#000000" stroke="none">
<path d="M3111 5900 l0 -320 65 0 64 0 0 260 0 260 130 0 130 0 0 60 0 60
-195 0 -195 0 1 -320z"/>
<path d="M3370 6030 l0 -60 65 0 65 0 0 -195 0 -195 125 0 125 0 0 60 0 59
-67 4 -68 3 68 2 67 2 0 60 0 59 -67 4 -68 3 68 2 67 2 0 60 0 59 -62 4 c-35
2 -3 4 70 5 l132 2 0 60 0 60 -260 0 -260 0 0 -60z"/>
<path d="M3890 5770 l0 -190 125 0 125 0 0 60 0 59 -67 4 c-38 2 -6 4 70 5
l137 2 0 60 0 60 -132 0 -133 0 3 65 4 65 -66 0 -66 0 0 -190z"/>
<path d="M4280 5640 l0 -60 60 0 60 0 0 60 0 60 -60 0 -60 0 0 -60z"/>
<path d="M650 5510 l0 -60 710 0 710 0 0 60 0 60 -710 0 -710 0 0 -60z"/>
<path d="M3110 5510 l0 -60 65 0 65 0 0 60 0 60 -65 0 -65 0 0 -60z"/>
<path d="M3500 5510 l0 -60 125 0 125 0 0 60 0 60 -125 0 -125 0 0 -60z"/>
<path d="M3890 5510 l0 -60 125 0 125 0 0 60 0 60 -125 0 -125 0 0 -60z"/>
<path d="M4280 5510 l0 -60 190 0 190 0 0 60 0 60 -190 0 -190 0 0 -60z"/>
<path d="M520 5380 l0 -60 60 0 60 0 0 60 0 60 -60 0 -60 0 0 -60z"/>
<path d="M2080 5380 l0 -60 60 0 60 0 0 60 0 60 -60 0 -60 0 0 -60z"/>
<path d="M3110 5380 l0 -60 65 0 65 0 0 60 0 60 -65 0 -65 0 0 -60z"/>
<path d="M3500 5380 l0 -60 125 0 125 0 0 60 0 60 -125 0 -125 0 0 -60z"/>
<path d="M3890 5380 l0 -60 125 0 125 0 0 60 0 60 -125 0 -125 0 0 -60z"/>
<path d="M4280 5380 l0 -60 60 0 60 0 0 60 0 60 -60 0 -60 0 0 -60z"/>
<path d="M4410 5380 l0 -60 60 0 60 0 0 60 0 60 -60 0 -60 0 0 -60z"/>
<path d="M4670 5380 l0 -60 60 0 60 0 0 60 0 60 -60 0 -60 0 0 -60z"/>
<path d="M390 5250 l0 -60 65 0 65 0 0 60 0 60 -65 0 -65 0 0 -60z"/>
<path d="M2210 5250 l0 -60 60 0 60 0 0 60 0 60 -60 0 -60 0 0 -60z"/>
<path d="M3110 5250 l0 -60 65 0 65 0 0 60 0 60 -65 0 -65 0 0 -60z"/>
<path d="M3500 5250 l0 -60 125 0 125 0 0 60 0 60 -125 0 -125 0 0 -60z"/>
<path d="M3890 5250 l0 -60 125 0 125 0 0 60 0 60 -125 0 -125 0 0 -60z"/>
<path d="M4280 5250 l0 -60 60 0 60 0 0 60 0 60 -60 0 -60 0 0 -60z"/>
<path d="M4410 5250 l0 -60 60 0 60 0 0 60 0 60 -60 0 -60 0 0 -60z"/>
<path d="M4670 5250 l0 -60 190 0 190 0 0 60 0 60 -190 0 -190 0 0 -60z"/>
<path d="M260 5120 l0 -60 65 0 65 0 0 60 0 60 -65 0 -65 0 0 -60z"/>
<path d="M2340 5120 l0 -60 60 0 60 0 0 60 0 60 -60 0 -60 0 0 -60z"/>
<path d="M3110 5120 l0 -60 65 0 65 0 0 60 0 60 -65 0 -65 0 0 -60z"/>
<path d="M3500 5120 l0 -60 125 0 125 0 0 60 0 60 -125 0 -125 0 0 -60z"/>
<path d="M3890 5120 l0 -60 125 0 125 0 0 60 0 60 -125 0 -125 0 0 -60z"/>
<path d="M4280 5120 l0 -60 60 0 60 0 0 60 0 60 -60 0 -60 0 0 -60z"/>
<path d="M4410 5120 l0 -60 60 0 60 0 0 60 0 60 -60 0 -60 0 0 -60z"/>
<path d="M4670 5120 l0 -60 60 0 60 0 0 60 0 60 -60 0 -60 0 0 -60z"/>
<path d="M4800 5120 l0 -60 60 0 60 0 0 60 0 60 -60 0 -60 0 0 -60z"/>
<path d="M5060 5120 l0 -60 60 0 60 0 0 60 0 60 -60 0 -60 0 0 -60z"/>
<path d="M260 4990 l0 -60 65 0 65 0 0 60 0 60 -65 0 -65 0 0 -60z"/>
<path d="M2470 4990 l0 -60 60 0 60 0 0 60 0 60 -60 0 -60 0 0 -60z"/>
<path d="M3110 4990 l0 -60 65 0 65 0 0 60 0 60 -65 0 -65 0 0 -60z"/>
<path d="M3500 4990 l0 -60 125 0 125 0 0 60 0 60 -125 0 -125 0 0 -60z"/>
<path d="M3890 4990 l0 -60 125 0 125 0 0 60 0 60 -125 0 -125 0 0 -60z"/>
<path d="M4280 4990 l0 -60 60 0 60 0 0 60 0 60 -60 0 -60 0 0 -60z"/>
<path d="M4410 4990 l0 -60 60 0 60 0 0 60 0 60 -60 0 -60 0 0 -60z"/>
<path d="M4670 4990 l0 -60 60 0 60 0 0 60 0 60 -60 0 -60 0 0 -60z"/>
<path d="M4800 4990 l0 -60 60 0 60 0 0 60 0 60 -60 0 -60 0 0 -60z"/>
<path d="M5060 4990 l0 -60 190 0 190 0 0 60 0 60 -190 0 -190 0 0 -60z"/>
<path d="M260 4860 l0 -60 65 0 65 0 0 60 0 60 -65 0 -65 0 0 -60z"/>
<path d="M910 4860 l0 -60 450 0 450 0 0 60 0 60 -450 0 -450 0 0 -60z"/>
<path d="M2600 4860 l0 -60 60 0 60 0 0 60 0 60 -60 0 -60 0 0 -60z"/>
<path d="M3111 4793 c0 -71 0 -158 0 -195 l-1 -68 -130 0 -130 0 0 130 0 130
-64 0 -65 0 0 -320 0 -320 65 0 64 0 0 130 0 130 195 0 195 0 0 255 0 255 -65
0 -65 0 1 -127z"/>
<path d="M3500 3560 l0 -1360 -65 0 -65 0 0 -60 0 -60 260 0 260 0 0 60 0 60
-137 2 c-76 1 -108 3 -70 5 l67 4 0 59 0 59 -67 4 -68 3 68 2 67 2 0 60 0 59
-67 4 -68 3 68 2 67 2 0 60 0 59 -62 4 -63 3 63 2 62 2 0 60 0 59 -62 4 -63 3
63 2 62 2 0 60 0 59 -62 4 -63 3 63 2 62 2 0 60 0 59 -62 4 -63 3 63 2 62 2 0
60 0 59 -62 4 -63 3 63 2 62 2 0 60 0 59 -62 4 -63 3 63 2 62 2 0 250 0 249
-62 4 -63 3 63 2 62 2 0 60 0 59 -62 4 -63 3 63 2 62 2 0 60 0 59 -62 4 -63 3
63 2 62 2 0 60 0 59 -62 4 -63 3 63 2 62 2 0 60 0 59 -62 4 -63 3 63 2 62 2 0
60 0 59 -62 4 -63 3 63 2 62 2 0 60 0 59 -62 4 -63 3 63 2 62 2 0 60 0 59 -67
4 -68 3 68 2 67 2 0 60 0 59 -67 4 -68 3 68 2 67 2 0 60 0 60 -125 0 -125 0 0
-1360z"/>
<path d="M3890 3565 l0 -1355 66 0 66 0 -4 65 -3 65 133 0 132 0 0 60 0 60
-137 2 c-76 1 -108 3 -70 5 l67 4 0 59 0 59 -67 4 -68 3 68 2 67 2 0 60 0 59
-67 4 -68 3 68 2 67 2 0 60 0 59 -67 4 -68 3 68 2 67 2 0 60 0 59 -67 4 -68 3
68 2 67 2 0 60 0 59 -62 4 -63 3 63 2 62 2 0 60 0 59 -62 4 -63 3 63 2 62 2 0
250 0 249 -62 4 -63 3 63 2 62 2 0 60 0 59 -62 4 -63 3 63 2 62 2 0 60 0 59
-62 4 -63 3 63 2 62 2 0 60 0 59 -67 4 -68 3 68 2 67 2 0 60 0 59 -67 4 -68 3
68 2 67 2 0 60 0 59 -67 4 -68 3 68 2 67 2 0 60 0 59 -67 4 -68 3 68 2 67 2 0
60 0 59 -67 4 -68 3 68 2 67 2 0 60 0 59 -67 4 -68 3 68 2 67 2 0 60 0 60
-125 0 -125 0 0 -1355z"/>
<path d="M4280 3695 l0 -1225 60 0 59 0 3 62 3 63 128 3 127 3 0 59 0 60 -130
0 -130 0 0 1100 0 1100 -60 0 -60 0 0 -1225z"/>
<path d="M4410 4860 l0 -60 60 0 60 0 0 60 0 60 -60 0 -60 0 0 -60z"/>
<path d="M4670 3820 l0 -1100 60 0 60 0 0 65 0 65 130 0 130 0 0 65 0 65 -130
0 -130 0 0 970 0 970 -60 0 -60 0 0 -1100z"/>
<path d="M4800 4860 l0 -60 60 0 60 0 0 60 0 60 -60 0 -60 0 0 -60z"/>
<path d="M5060 3950 l0 -970 60 0 60 0 0 65 0 65 130 0 130 0 0 65 0 65 -65 0
-65 0 0 255 0 255 -60 0 -60 0 -3 -257 c-1 -142 -3 121 -5 585 l-2 842 -60 0
-60 0 0 -970z"/>
<path d="M5190 4860 l0 -60 60 0 60 0 0 60 0 60 -60 0 -60 0 0 -60z"/>
<path d="M5450 4080 l0 -840 60 0 60 0 0 65 0 65 130 0 130 0 0 65 0 65 -65 0
-65 0 0 125 0 125 -60 0 -59 0 -4 -127 c-1 -71 -4 136 -5 460 l-2 587 130 0
130 0 0 60 0 60 -130 0 -130 0 0 65 0 65 -60 0 -60 0 0 -840z"/>
<path d="M130 4340 l0 -450 65 0 65 0 0 -905 0 -905 198 -3 197 -2 -197 -3
-198 -2 0 -60 0 -60 198 -3 197 -2 -197 -3 -198 -2 0 -60 0 -59 133 -4 132 -3
-132 -2 -133 -2 0 -60 0 -60 393 -2 c215 -1 362 -3 325 -5 l-68 -4 0 -59 0
-60 133 -2 c72 -1 102 -3 65 -5 l-68 -4 0 -59 0 -59 133 -4 132 -3 -132 -2
-133 -2 0 -60 0 -59 68 -4 67 -3 -67 -2 -68 -2 0 -65 0 -65 -65 0 -65 0 0 -60
0 -60 65 0 65 0 -2 -67 -2 -68 -3 63 -4 62 -197 3 c-108 1 -253 2 -322 1 -69
0 -97 1 -62 3 l62 4 0 59 0 60 -132 2 c-81 1 -105 3 -60 5 l72 4 0 59 0 60
-72 2 -73 2 68 3 67 4 0 59 0 60 -125 0 -125 0 0 -190 0 -190 65 0 65 0 0 -65
0 -65 65 0 65 0 0 -65 0 -65 1425 0 1425 0 0 65 0 65 65 0 65 0 0 65 0 65 65
0 65 0 0 190 0 190 -130 0 -130 0 0 -60 0 -59 73 -4 72 -3 -72 -2 -73 -2 0
-60 0 -59 73 -4 c44 -2 20 -4 -60 -5 l-133 -2 0 -65 0 -65 -195 0 -194 0 -4
-62 c-2 -35 -4 -6 -5 65 l-2 127 -65 0 -65 0 0 65 0 64 -67 4 -68 3 68 2 67 2
0 60 0 59 -132 4 -133 3 133 2 132 2 0 60 0 59 -67 4 c-38 2 -8 4 65 5 l132 2
0 60 0 59 -67 4 c-38 2 109 4 325 5 l392 2 0 60 0 60 -65 0 -65 0 0 65 0 65
-125 0 -125 0 0 -60 0 -59 68 -4 67 -3 -72 -2 -73 -2 0 65 0 65 -65 0 -65 0 0
65 0 65 -65 0 -65 0 0 70 0 70 65 0 65 0 0 125 0 125 -190 0 -190 0 0 -60 0
-59 68 -4 67 -3 -72 -2 -73 -2 0 65 0 65 -65 0 -65 0 0 65 0 65 -65 0 -65 0 2
73 2 72 3 -67 4 -68 59 0 60 0 0 125 0 125 -65 0 -65 0 0 65 0 65 -60 0 -59 0
-4 -67 c-2 -38 -4 -8 -5 65 l-2 132 -60 0 -60 0 0 -196 0 -196 65 4 65 3 -2
-395 c-1 -217 -3 -365 -5 -327 l-4 67 -59 0 -60 0 -2 -127 c-1 -71 -3 -100 -5
-65 l-4 62 -59 0 -60 0 0 -65 0 -65 -397 2 c-219 1 -368 3 -330 5 l67 4 0 59
0 60 -65 0 -65 0 0 65 0 65 -132 2 c-73 1 -103 3 -65 5 l67 4 0 189 0 190 -60
0 -60 0 0 -130 0 -130 -72 2 -73 2 68 3 67 4 0 59 0 59 -67 4 -68 3 68 2 67 2
0 60 0 60 -125 0 -125 0 0 -130 0 -130 -72 2 -73 2 68 3 67 4 0 59 0 59 -67 4
-68 3 68 2 67 2 0 60 0 59 -67 4 c-38 2 -8 4 65 5 l132 2 0 60 0 60 -127 0
-128 0 2 72 c1 40 2 186 3 325 l0 252 63 3 62 3 3 65 c2 36 1 120 -3 187 l-7
122 -61 4 -62 3 68 2 67 2 0 -65 0 -65 66 0 67 0 -7 92 c-3 50 -6 106 -6 124
l0 33 -127 4 -128 3 133 2 132 2 0 -65 0 -65 320 0 320 0 0 125 0 125 -452 2
c-284 2 -357 4 -195 5 l257 3 0 60 0 60 -320 0 -320 0 -1 198 c0 108 0 284 0
390 l1 192 -65 0 -65 0 0 -450z m2077 -2107 c-2 -21 -4 -4 -4 37 0 41 2 58 4
38 2 -21 2 -55 0 -75z m3 -353 l0 -70 -72 2 -73 2 68 3 67 4 0 64 c0 36 2 65
5 65 3 0 5 -31 5 -70z m-1462 -67 c-21 -2 -55 -2 -75 0 -21 2 -4 4 37 4 41 0
58 -2 38 -4z m1690 0 c-21 -2 -55 -2 -75 0 -21 2 -4 4 37 4 41 0 58 -2 38 -4z
m-36 -130 c-40 -2 -103 -2 -140 0 -37 2 -4 3 73 3 77 0 107 -2 67 -3z m-780
-260 c-40 -2 -103 -2 -140 0 -37 2 -4 3 73 3 77 0 107 -2 67 -3z m461 0 l-132
-4 -4 -62 -3 -62 -2 68 -2 67 138 -2 137 -2 -132 -3z m-525 -450 l-2 -68 -3
63 -4 62 -189 0 -189 0 -4 -62 -3 -63 -2 68 -2 67 200 0 200 0 -2 -67z m520 0
l-2 -68 -3 63 -4 62 -189 0 -189 0 -4 -62 -3 -63 -2 68 -2 67 200 0 200 0 -2
-67z m330 60 l-197 -3 -4 -63 -3 -62 -2 68 -2 67 203 -2 202 -3 -197 -2z"/>
<path d="M910 4470 l0 -320 260 0 260 0 0 -65 0 -65 65 0 65 0 0 -65 0 -65 65
0 65 0 0 -65 0 -65 65 0 65 0 0 -65 0 -65 60 0 60 0 0 65 0 65 65 0 65 0 0 65
0 65 65 0 65 0 2 133 c1 72 3 102 5 65 l4 -68 59 0 60 0 0 65 0 65 65 0 65 0
0 65 0 65 -65 0 -65 0 0 65 0 65 -65 0 -65 0 0 60 0 60 -65 0 -65 0 0 65 0 65
-65 0 -65 0 0 65 0 65 -515 0 -515 0 0 -320z m777 103 c-2 -21 -4 -6 -4 32 0
39 2 55 4 38 2 -18 2 -50 0 -70z m130 -130 c-2 -21 -4 -6 -4 32 0 39 2 55 4
38 2 -18 2 -50 0 -70z m130 -130 c-2 -21 -4 -6 -4 32 0 39 2 55 4 38 2 -18 2
-50 0 -70z m130 -130 c-2 -21 -4 -6 -4 32 0 39 2 55 4 38 2 -18 2 -50 0 -70z"/>
<path d="M4410 4730 l0 -60 60 0 60 0 0 60 0 60 -60 0 -60 0 0 -60z"/>
<path d="M4800 4730 l0 -60 60 0 60 0 0 60 0 60 -60 0 -60 0 0 -60z"/>
<path d="M5190 4730 l0 -60 60 0 60 0 0 60 0 60 -60 0 -60 0 0 -60z"/>
<path d="M4410 4600 l0 -60 60 0 60 0 0 60 0 60 -60 0 -60 0 0 -60z"/>
<path d="M4800 4600 l0 -60 60 0 60 0 0 60 0 60 -60 0 -60 0 0 -60z"/>
<path d="M5190 4600 l0 -60 60 0 60 0 0 60 0 60 -60 0 -60 0 0 -60z"/>
<path d="M5580 4600 l0 -60 60 0 60 0 0 60 0 60 -60 0 -60 0 0 -60z"/>
<path d="M5840 4080 l0 -580 60 0 60 0 0 65 0 65 130 0 130 0 0 65 0 65 65 0
65 0 0 65 0 65 195 0 195 0 0 65 0 65 65 0 65 0 0 65 0 66 -62 -3 -63 -3 -3
-62 -3 -63 -129 0 -130 0 0 60 0 60 -60 0 -59 0 -4 -62 -3 -63 -2 68 -2 67
195 0 195 0 0 65 0 65 -195 0 -195 0 0 60 0 60 -65 0 -64 0 0 -257 c0 -142 0
-286 0 -320 l-1 -63 -65 0 -65 0 0 60 0 60 -60 0 -59 0 -4 -62 c-2 -35 -4 84
-5 265 l-2 327 130 0 130 0 0 60 0 60 -130 0 -130 0 0 65 0 65 -60 0 -60 0 0
-580z"/>
<path d="M4410 4470 l0 -60 60 0 60 0 0 60 0 60 -60 0 -60 0 0 -60z"/>
<path d="M4800 4470 l0 -60 60 0 60 0 0 60 0 60 -60 0 -60 0 0 -60z"/>
<path d="M5190 4470 l0 -60 60 0 60 0 0 60 0 60 -60 0 -60 0 0 -60z"/>
<path d="M5580 4470 l0 -60 60 0 60 0 0 60 0 60 -60 0 -60 0 0 -60z"/>
<path d="M2860 4340 l0 -60 60 0 60 0 0 60 0 60 -60 0 -60 0 0 -60z"/>
<path d="M3120 4340 l0 -60 60 0 60 0 0 60 0 60 -60 0 -60 0 0 -60z"/>
<path d="M4410 4340 l0 -60 60 0 60 0 0 60 0 60 -60 0 -60 0 0 -60z"/>
<path d="M4800 4340 l0 -60 60 0 60 0 0 60 0 60 -60 0 -60 0 0 -60z"/>
<path d="M5190 4340 l0 -60 60 0 60 0 0 60 0 60 -60 0 -60 0 0 -60z"/>
<path d="M5580 4340 l0 -60 60 0 60 0 0 60 0 60 -60 0 -60 0 0 -60z"/>
<path d="M5970 4340 l0 -60 60 0 60 0 0 60 0 60 -60 0 -60 0 0 -60z"/>
<path d="M2860 4237 c0 -19 -3 -75 -6 -125 l-7 -92 67 0 66 0 0 125 0 125 -60
0 -60 0 0 -33z"/>
<path d="M3120 4210 l0 -60 60 0 60 0 0 60 0 60 -60 0 -60 0 0 -60z"/>
<path d="M4410 4210 l0 -60 60 0 60 0 0 60 0 60 -60 0 -60 0 0 -60z"/>
<path d="M4800 4210 l0 -60 60 0 60 0 0 60 0 60 -60 0 -60 0 0 -60z"/>
<path d="M5190 4210 l0 -60 60 0 60 0 0 60 0 60 -60 0 -60 0 0 -60z"/>
<path d="M5580 4210 l0 -60 60 0 60 0 0 60 0 60 -60 0 -60 0 0 -60z"/>
<path d="M5970 4210 l0 -60 60 0 60 0 0 60 0 60 -60 0 -60 0 0 -60z"/>
<path d="M3120 4080 l0 -60 60 0 60 0 0 60 0 60 -60 0 -60 0 0 -60z"/>
<path d="M4410 4080 l0 -60 60 0 60 0 0 60 0 60 -60 0 -60 0 0 -60z"/>
<path d="M4800 4080 l0 -60 60 0 60 0 0 60 0 60 -60 0 -60 0 0 -60z"/>
<path d="M5190 4080 l0 -60 60 0 60 0 0 60 0 60 -60 0 -60 0 0 -60z"/>
<path d="M5580 4080 l0 -60 60 0 60 0 0 60 0 60 -60 0 -60 0 0 -60z"/>
<path d="M5970 4080 l0 -60 60 0 60 0 0 60 0 60 -60 0 -60 0 0 -60z"/>
<path d="M2470 3955 l0 -64 -67 -3 -68 -3 -3 -62 -3 -63 -59 0 -60 0 0 -65 0
-65 -65 0 -65 0 0 -130 0 -130 60 0 59 0 3 -62 3 -63 62 -3 62 -3 3 -62 3 -62
62 -3 62 -3 3 -62 3 -62 62 -3 62 -3 3 -62 3 -62 63 -3 62 -3 0 66 0 65 65 0
65 0 0 65 0 65 65 0 65 0 0 65 0 65 65 0 65 0 0 -260 0 -260 -65 0 -65 0 0
-60 0 -60 65 0 65 0 1 -67 c0 -38 0 -155 0 -260 l-1 -193 65 0 65 0 0 965 0
965 -59 0 -58 0 -7 -92 c-3 -50 -6 -165 -6 -255 l0 -163 -65 0 -65 0 0 65 0
65 -65 0 -65 0 0 65 0 65 -65 0 -65 0 0 66 0 66 -65 -4 -65 -3 0 68 0 67 -60
0 -60 0 0 -65z"/>
<path d="M2987 4013 c-4 -3 -7 -33 -7 -65 l0 -58 65 0 65 0 0 65 0 65 -58 0
c-32 0 -62 -3 -65 -7z"/>
<path d="M4410 3950 l0 -60 60 0 60 0 0 60 0 60 -60 0 -60 0 0 -60z"/>
<path d="M4800 3950 l0 -60 60 0 60 0 0 60 0 60 -60 0 -60 0 0 -60z"/>
<path d="M5190 3950 l0 -60 60 0 60 0 0 60 0 60 -60 0 -60 0 0 -60z"/>
<path d="M5580 3950 l0 -60 60 0 60 0 0 60 0 60 -60 0 -60 0 0 -60z"/>
<path d="M5970 3950 l0 -60 60 0 60 0 0 60 0 60 -60 0 -60 0 0 -60z"/>
<path d="M4410 3820 l0 -60 60 0 60 0 0 60 0 60 -60 0 -60 0 0 -60z"/>
<path d="M4800 3820 l0 -60 60 0 60 0 0 60 0 60 -60 0 -60 0 0 -60z"/>
<path d="M5190 3820 l0 -60 60 0 60 0 0 60 0 60 -60 0 -60 0 0 -60z"/>
<path d="M5580 3820 l0 -60 60 0 60 0 0 60 0 60 -60 0 -60 0 0 -60z"/>
<path d="M1300 3625 l0 -125 60 0 60 0 0 125 0 125 -60 0 -60 0 0 -125z"/>
<path d="M4410 3500 l0 -250 60 0 60 0 0 250 0 250 -60 0 -60 0 0 -250z"/>
<path d="M4800 3500 l0 -250 60 0 60 0 0 250 0 250 -60 0 -60 0 0 -250z"/>
<path d="M1430 3430 l0 -190 -195 0 -195 0 0 -65 0 -65 -65 0 -65 0 0 -65 0
-65 -65 0 -65 0 0 -130 0 -130 -65 0 -65 0 0 -125 0 -125 125 0 125 0 0 130 0
130 65 0 65 0 0 60 0 59 -67 4 -68 3 67 2 67 2 4 68 3 67 2 -72 2 -73 60 0 60
0 2 133 c1 72 3 104 5 70 l4 -63 189 0 189 0 4 63 3 62 2 -67 2 -68 60 0 60 0
2 68 2 67 3 -62 4 -63 64 0 65 0 0 -70 0 -70 60 0 60 0 0 195 0 195 -195 0
-195 0 0 190 0 190 -60 0 -60 0 0 -190z"/>
<path d="M1560 3440 l0 -60 60 0 60 0 0 60 0 60 -60 0 -60 0 0 -60z"/>
<path d="M1040 3310 l0 -60 190 0 190 0 0 60 0 60 -190 0 -190 0 0 -60z"/>
<path d="M1560 3310 l0 -60 60 0 60 0 0 60 0 60 -60 0 -60 0 0 -60z"/>
<path d="M780 3180 l0 -60 125 0 125 0 0 60 0 60 -125 0 -125 0 0 -60z"/>
<path d="M1950 3180 l0 -60 60 0 60 0 0 60 0 60 -60 0 -60 0 0 -60z"/>
<path d="M4410 3180 l0 -60 60 0 60 0 0 60 0 60 -60 0 -60 0 0 -60z"/>
<path d="M4800 3180 l0 -60 60 0 60 0 0 60 0 60 -60 0 -60 0 0 -60z"/>
<path d="M650 3050 l0 -60 125 0 125 0 0 60 0 60 -125 0 -125 0 0 -60z"/>
<path d="M2080 3050 l0 -60 60 0 60 0 0 60 0 60 -60 0 -60 0 0 -60z"/>
<path d="M4410 3050 l0 -60 60 0 60 0 0 60 0 60 -60 0 -60 0 0 -60z"/>
<path d="M4800 3050 l0 -60 60 0 60 0 0 60 0 60 -60 0 -60 0 0 -60z"/>
<path d="M650 2920 l0 -60 60 0 60 0 0 60 0 60 -60 0 -60 0 0 -60z"/>
<path d="M2210 2920 l0 -60 60 0 60 0 0 60 0 60 -60 0 -60 0 0 -60z"/>
<path d="M4410 2920 l0 -60 60 0 60 0 0 60 0 60 -60 0 -60 0 0 -60z"/>
<path d="M520 2790 l0 -60 125 0 125 0 0 60 0 60 -125 0 -125 0 0 -60z"/>
<path d="M1170 2785 l0 -65 -65 0 -65 0 0 -320 0 -320 65 0 65 0 0 -65 0 -65
320 0 320 0 0 65 0 65 65 0 65 0 0 320 0 320 -65 0 -65 0 0 65 0 65 -320 0
-320 0 0 -65z m258 -252 l3 -63 59 0 59 0 3 63 3 62 68 3 67 3 0 -71 0 -70
-65 0 -65 0 0 -60 0 -60 65 0 65 0 0 -70 0 -70 -70 0 -70 0 0 65 0 65 -60 0
-60 0 0 -65 0 -65 -70 0 -70 0 0 70 0 70 65 0 65 0 0 60 0 60 -65 0 -65 0 0
70 0 71 68 -3 67 -3 3 -62z"/>
<path d="M2340 2790 l0 -60 60 0 60 0 0 60 0 60 -60 0 -60 0 0 -60z"/>
<path d="M4410 2790 l0 -60 60 0 60 0 0 60 0 60 -60 0 -60 0 0 -60z"/>
<path d="M520 2660 l0 -60 60 0 60 0 0 60 0 60 -60 0 -60 0 0 -60z"/>
<path d="M2340 2595 l0 -125 125 0 125 0 0 60 0 60 -65 0 -65 0 0 65 0 65 -60
0 -60 0 0 -125z"/>
<path d="M2470 2660 l0 -60 60 0 60 0 0 60 0 60 -60 0 -60 0 0 -60z"/>
<path d="M2600 2530 l0 -60 60 0 60 0 0 60 0 60 -60 0 -60 0 0 -60z"/>
<path d="M2850 2530 l0 -60 65 0 65 0 0 60 0 60 -65 0 -65 0 0 -60z"/>
<path d="M2730 2140 l0 -60 125 0 125 0 0 60 0 60 -125 0 -125 0 0 -60z"/>
<path d="M2860 2010 l0 -60 320 0 320 0 0 60 0 60 -320 0 -320 0 0 -60z"/>
<path d="M130 1620 l0 -60 195 0 195 0 0 60 0 60 -195 0 -195 0 0 -60z"/>
<path d="M3120 1620 l0 -60 190 0 190 0 0 60 0 60 -190 0 -190 0 0 -60z"/>
<path d="M130 1490 l0 -60 125 0 125 0 0 60 0 60 -125 0 -125 0 0 -60z"/>
<path d="M520 1360 l0 -190 190 0 190 0 0 190 0 190 -190 0 -190 0 0 -190z
m260 0 l0 -70 -67 0 -68 0 0 70 0 70 68 0 67 0 0 -70z"/>
<path d="M2721 1360 l0 -190 194 0 195 0 0 190 0 190 -195 0 -194 0 0 -190z
m264 0 l0 -70 -67 0 -68 0 0 70 0 70 68 0 67 0 0 -70z"/>
<path d="M3240 1490 l0 -60 130 0 130 0 0 60 0 60 -130 0 -130 0 0 -60z"/>
</g>
</svg>
